<svg width="32" height="27" viewBox="0 0 32 27" fill="none" xmlns="http://www.w3.org/2000/svg">
<path d="M20.0655 26H16.6729V14.1699H3.77059V26H0.39559V0.40625H3.77059V11.4102H16.6729V0.40625H20.0655V26ZM27.6172 24.2949C27.6172 23.7324 27.7812 23.2637 28.1094 22.8887C28.4492 22.5137 28.9531 22.3262 29.6211 22.3262C30.2891 22.3262 30.793 22.5137 31.1328 22.8887C31.4844 23.2637 31.6602 23.7324 31.6602 24.2949C31.6602 24.834 31.4844 25.2852 31.1328 25.6484C30.793 26.0117 30.2891 26.1934 29.6211 26.1934C28.9531 26.1934 28.4492 26.0117 28.1094 25.6484C27.7812 25.2852 27.6172 24.834 27.6172 24.2949Z" fill="#EBCB80"/>
</svg>
