<svg width="24" height="36" viewBox="0 0 24 36" fill="none" xmlns="http://www.w3.org/2000/svg">
<path fill-rule="evenodd" clip-rule="evenodd" d="M1 5C1 2.79086 2.79086 1 5 1H19C21.2091 1 23 2.79086 23 5V31C23 33.2091 21.2091 35 19 35H5C2.79086 35 1 33.2091 1 31V5Z" fill="white" stroke="#4B4B4B" stroke-width="2"/>
<path d="M1.55536 26.4865H22.7967" stroke="#4B4B4B" stroke-width="2" stroke-linecap="round" stroke-linejoin="round"/>
<path fill-rule="evenodd" clip-rule="evenodd" d="M12.3793 28.9556C13.2167 28.9556 13.8965 29.6327 13.8965 30.4667C13.8965 31.3007 13.2167 31.9778 12.3793 31.9778C11.5419 31.9778 10.8621 31.3007 10.8621 30.4667C10.8621 29.6327 11.5419 28.9556 12.3793 28.9556Z" fill="#4B4B4B"/>
</svg>
